<mxfile host="app.diagrams.net" modified="2024-04-01T13:58:32.517Z" agent="Mozilla/5.0 (Windows NT 10.0; Win64; x64) AppleWebKit/537.36 (KHTML, like Gecko) Chrome/123.0.0.0 Safari/537.36" etag="ls1cH9PFJD_ddZPf76E5" version="24.2.1" type="github">
  <diagram name="Page-1" id="fc2ac565-0d4e-3f0d-88b0-a54af1634ed7">
    <mxGraphModel dx="1500" dy="813" grid="1" gridSize="10" guides="1" tooltips="1" connect="0" arrows="1" fold="1" page="1" pageScale="1.5" pageWidth="1169" pageHeight="827" background="none" math="0" shadow="0">
      <root>
        <mxCell id="0" style=";html=1;" />
        <mxCell id="1" style=";html=1;" parent="0" />
        <mxCell id="x98ANRGUHFvdE6zB3kTP-145" value="" style="shape=table;startSize=0;container=1;collapsible=0;childLayout=tableLayout;" vertex="1" parent="1">
          <mxGeometry x="310" y="150" width="500" height="550" as="geometry" />
        </mxCell>
        <mxCell id="x98ANRGUHFvdE6zB3kTP-146" value="" style="shape=tableRow;horizontal=0;startSize=0;swimlaneHead=0;swimlaneBody=0;strokeColor=inherit;top=0;left=0;bottom=0;right=0;collapsible=0;dropTarget=0;fillColor=none;points=[[0,0.5],[1,0.5]];portConstraint=eastwest;" vertex="1" parent="x98ANRGUHFvdE6zB3kTP-145">
          <mxGeometry width="500" height="79" as="geometry" />
        </mxCell>
        <mxCell id="x98ANRGUHFvdE6zB3kTP-147" value="Tarih" style="shape=partialRectangle;html=1;whiteSpace=wrap;connectable=0;strokeColor=#6c8ebf;overflow=hidden;fillColor=#dae8fc;top=0;left=0;bottom=0;right=0;pointerEvents=1;fontStyle=1;fontSize=15;" vertex="1" parent="x98ANRGUHFvdE6zB3kTP-146">
          <mxGeometry width="250" height="79" as="geometry">
            <mxRectangle width="250" height="79" as="alternateBounds" />
          </mxGeometry>
        </mxCell>
        <mxCell id="x98ANRGUHFvdE6zB3kTP-148" value="Planlanan Aktivite" style="shape=partialRectangle;html=1;whiteSpace=wrap;connectable=0;strokeColor=#6c8ebf;overflow=hidden;fillColor=#dae8fc;top=0;left=0;bottom=0;right=0;pointerEvents=1;fontStyle=1;fontSize=15;" vertex="1" parent="x98ANRGUHFvdE6zB3kTP-146">
          <mxGeometry x="250" width="250" height="79" as="geometry">
            <mxRectangle width="250" height="79" as="alternateBounds" />
          </mxGeometry>
        </mxCell>
        <mxCell id="x98ANRGUHFvdE6zB3kTP-149" value="" style="shape=tableRow;horizontal=0;startSize=0;swimlaneHead=0;swimlaneBody=0;strokeColor=inherit;top=0;left=0;bottom=0;right=0;collapsible=0;dropTarget=0;fillColor=none;points=[[0,0.5],[1,0.5]];portConstraint=eastwest;" vertex="1" parent="x98ANRGUHFvdE6zB3kTP-145">
          <mxGeometry y="79" width="500" height="77" as="geometry" />
        </mxCell>
        <mxCell id="x98ANRGUHFvdE6zB3kTP-150" value="29.04.2024" style="shape=partialRectangle;html=1;whiteSpace=wrap;connectable=0;strokeColor=#b85450;overflow=hidden;fillColor=#f8cecc;top=0;left=0;bottom=0;right=0;pointerEvents=1;fontStyle=1;fontSize=15;" vertex="1" parent="x98ANRGUHFvdE6zB3kTP-149">
          <mxGeometry width="250" height="77" as="geometry">
            <mxRectangle width="250" height="77" as="alternateBounds" />
          </mxGeometry>
        </mxCell>
        <mxCell id="x98ANRGUHFvdE6zB3kTP-151" value="Proje Sunuş Raporu Sonuçlarına göre Ön Elemeyi Geçen&lt;br style=&quot;font-size: 15px;&quot;&gt;Takımların Açıklanması" style="shape=partialRectangle;html=1;whiteSpace=wrap;connectable=0;strokeColor=#b85450;overflow=hidden;fillColor=#f8cecc;top=0;left=0;bottom=0;right=0;pointerEvents=1;fontStyle=1;fontSize=15;" vertex="1" parent="x98ANRGUHFvdE6zB3kTP-149">
          <mxGeometry x="250" width="250" height="77" as="geometry">
            <mxRectangle width="250" height="77" as="alternateBounds" />
          </mxGeometry>
        </mxCell>
        <mxCell id="x98ANRGUHFvdE6zB3kTP-152" value="" style="shape=tableRow;horizontal=0;startSize=0;swimlaneHead=0;swimlaneBody=0;strokeColor=inherit;top=0;left=0;bottom=0;right=0;collapsible=0;dropTarget=0;fillColor=none;points=[[0,0.5],[1,0.5]];portConstraint=eastwest;" vertex="1" parent="x98ANRGUHFvdE6zB3kTP-145">
          <mxGeometry y="156" width="500" height="79" as="geometry" />
        </mxCell>
        <mxCell id="x98ANRGUHFvdE6zB3kTP-153" value="06.05.2024&amp;nbsp;" style="shape=partialRectangle;html=1;whiteSpace=wrap;connectable=0;strokeColor=#82b366;overflow=hidden;fillColor=#d5e8d4;top=0;left=0;bottom=0;right=0;pointerEvents=1;fontStyle=1;fontSize=15;" vertex="1" parent="x98ANRGUHFvdE6zB3kTP-152">
          <mxGeometry width="250" height="79" as="geometry">
            <mxRectangle width="250" height="79" as="alternateBounds" />
          </mxGeometry>
        </mxCell>
        <mxCell id="x98ANRGUHFvdE6zB3kTP-154" value="Mamografi Görüntüleri ve Mamografi Raporlarının Paylaşılması&amp;nbsp;" style="shape=partialRectangle;html=1;whiteSpace=wrap;connectable=0;strokeColor=#82b366;overflow=hidden;fillColor=#d5e8d4;top=0;left=0;bottom=0;right=0;pointerEvents=1;fontStyle=1;fontSize=15;" vertex="1" parent="x98ANRGUHFvdE6zB3kTP-152">
          <mxGeometry x="250" width="250" height="79" as="geometry">
            <mxRectangle width="250" height="79" as="alternateBounds" />
          </mxGeometry>
        </mxCell>
        <mxCell id="x98ANRGUHFvdE6zB3kTP-155" value="" style="shape=tableRow;horizontal=0;startSize=0;swimlaneHead=0;swimlaneBody=0;strokeColor=inherit;top=0;left=0;bottom=0;right=0;collapsible=0;dropTarget=0;fillColor=none;points=[[0,0.5],[1,0.5]];portConstraint=eastwest;" vertex="1" parent="x98ANRGUHFvdE6zB3kTP-145">
          <mxGeometry y="235" width="500" height="80" as="geometry" />
        </mxCell>
        <mxCell id="x98ANRGUHFvdE6zB3kTP-156" value="13.05.2024" style="shape=partialRectangle;html=1;whiteSpace=wrap;connectable=0;strokeColor=#9673a6;overflow=hidden;fillColor=#e1d5e7;top=0;left=0;bottom=0;right=0;pointerEvents=1;fontStyle=1;fontSize=15;" vertex="1" parent="x98ANRGUHFvdE6zB3kTP-155">
          <mxGeometry width="250" height="80" as="geometry">
            <mxRectangle width="250" height="80" as="alternateBounds" />
          </mxGeometry>
        </mxCell>
        <mxCell id="x98ANRGUHFvdE6zB3kTP-157" value="Farklı algoritmaların denenip ilk sonuçların kıyaslanması" style="shape=partialRectangle;html=1;whiteSpace=wrap;connectable=0;strokeColor=#9673a6;overflow=hidden;fillColor=#e1d5e7;top=0;left=0;bottom=0;right=0;pointerEvents=1;fontStyle=1;fontSize=15;" vertex="1" parent="x98ANRGUHFvdE6zB3kTP-155">
          <mxGeometry x="250" width="250" height="80" as="geometry">
            <mxRectangle width="250" height="80" as="alternateBounds" />
          </mxGeometry>
        </mxCell>
        <mxCell id="x98ANRGUHFvdE6zB3kTP-158" value="" style="shape=tableRow;horizontal=0;startSize=0;swimlaneHead=0;swimlaneBody=0;strokeColor=inherit;top=0;left=0;bottom=0;right=0;collapsible=0;dropTarget=0;fillColor=none;points=[[0,0.5],[1,0.5]];portConstraint=eastwest;" vertex="1" parent="x98ANRGUHFvdE6zB3kTP-145">
          <mxGeometry y="315" width="500" height="79" as="geometry" />
        </mxCell>
        <mxCell id="x98ANRGUHFvdE6zB3kTP-159" value="20.05.2024" style="shape=partialRectangle;html=1;whiteSpace=wrap;connectable=0;strokeColor=#b85450;overflow=hidden;fillColor=#f8cecc;top=0;left=0;bottom=0;right=0;pointerEvents=1;fontStyle=1;fontSize=15;" vertex="1" parent="x98ANRGUHFvdE6zB3kTP-158">
          <mxGeometry width="250" height="79" as="geometry">
            <mxRectangle width="250" height="79" as="alternateBounds" />
          </mxGeometry>
        </mxCell>
        <mxCell id="x98ANRGUHFvdE6zB3kTP-160" value="Kararlaştırılmış algoritmaların sonuçlarının elde edilmesi" style="shape=partialRectangle;html=1;whiteSpace=wrap;connectable=0;strokeColor=#b85450;overflow=hidden;fillColor=#f8cecc;top=0;left=0;bottom=0;right=0;pointerEvents=1;fontStyle=1;fontSize=15;" vertex="1" parent="x98ANRGUHFvdE6zB3kTP-158">
          <mxGeometry x="250" width="250" height="79" as="geometry">
            <mxRectangle width="250" height="79" as="alternateBounds" />
          </mxGeometry>
        </mxCell>
        <mxCell id="x98ANRGUHFvdE6zB3kTP-161" value="" style="shape=tableRow;horizontal=0;startSize=0;swimlaneHead=0;swimlaneBody=0;strokeColor=inherit;top=0;left=0;bottom=0;right=0;collapsible=0;dropTarget=0;fillColor=none;points=[[0,0.5],[1,0.5]];portConstraint=eastwest;" vertex="1" parent="x98ANRGUHFvdE6zB3kTP-145">
          <mxGeometry y="394" width="500" height="77" as="geometry" />
        </mxCell>
        <mxCell id="x98ANRGUHFvdE6zB3kTP-162" value="&#xa;24.06.2024&#xa;&#xa;" style="shape=partialRectangle;html=1;whiteSpace=wrap;connectable=0;strokeColor=#82b366;overflow=hidden;fillColor=#d5e8d4;top=0;left=0;bottom=0;right=0;pointerEvents=1;fontStyle=1;fontSize=15;" vertex="1" parent="x98ANRGUHFvdE6zB3kTP-161">
          <mxGeometry width="250" height="77" as="geometry">
            <mxRectangle width="250" height="77" as="alternateBounds" />
          </mxGeometry>
        </mxCell>
        <mxCell id="x98ANRGUHFvdE6zB3kTP-163" value="&#xa;Proje Detay Raporu Son Teslim Tarihi&#xa;&#xa;" style="shape=partialRectangle;html=1;whiteSpace=wrap;connectable=0;strokeColor=#82b366;overflow=hidden;fillColor=#d5e8d4;top=0;left=0;bottom=0;right=0;pointerEvents=1;fontStyle=1;fontSize=15;" vertex="1" parent="x98ANRGUHFvdE6zB3kTP-161">
          <mxGeometry x="250" width="250" height="77" as="geometry">
            <mxRectangle width="250" height="77" as="alternateBounds" />
          </mxGeometry>
        </mxCell>
        <mxCell id="x98ANRGUHFvdE6zB3kTP-164" value="" style="shape=tableRow;horizontal=0;startSize=0;swimlaneHead=0;swimlaneBody=0;strokeColor=inherit;top=0;left=0;bottom=0;right=0;collapsible=0;dropTarget=0;fillColor=none;points=[[0,0.5],[1,0.5]];portConstraint=eastwest;" vertex="1" parent="x98ANRGUHFvdE6zB3kTP-145">
          <mxGeometry y="471" width="500" height="79" as="geometry" />
        </mxCell>
        <mxCell id="x98ANRGUHFvdE6zB3kTP-165" value="&#xa;10.07.2024&#xa;&#xa;" style="shape=partialRectangle;html=1;whiteSpace=wrap;connectable=0;strokeColor=#9673a6;overflow=hidden;fillColor=#e1d5e7;top=0;left=0;bottom=0;right=0;pointerEvents=1;fontStyle=1;fontSize=15;" vertex="1" parent="x98ANRGUHFvdE6zB3kTP-164">
          <mxGeometry width="250" height="79" as="geometry">
            <mxRectangle width="250" height="79" as="alternateBounds" />
          </mxGeometry>
        </mxCell>
        <mxCell id="x98ANRGUHFvdE6zB3kTP-166" value="&#xa;Proje Detay Raporu Sonuçlarının ve Finale Kalan Takımların&#xa;Açıklanması&#xa;&#xa;" style="shape=partialRectangle;html=1;whiteSpace=wrap;connectable=0;strokeColor=#9673a6;overflow=hidden;fillColor=#e1d5e7;top=0;left=0;bottom=0;right=0;pointerEvents=1;fontStyle=1;fontSize=15;" vertex="1" parent="x98ANRGUHFvdE6zB3kTP-164">
          <mxGeometry x="250" width="250" height="79" as="geometry">
            <mxRectangle width="250" height="79" as="alternateBounds" />
          </mxGeometry>
        </mxCell>
      </root>
    </mxGraphModel>
  </diagram>
</mxfile>
